HIERARCHY
ROOT Hips
{
  OFFSET 43.0842 91.1655 101.099
  CHANNELS 6 Xposition Yposition Zposition Zrotation Xrotation Yrotation
  JOINT LeftUpLeg
  {
    OFFSET 8.64259 1.95398 -2.38835
    CHANNELS 3 Zrotation Xrotation Yrotation
    JOINT LeftLeg
    {
      OFFSET 43.7702 0 0
      CHANNELS 3 Zrotation Xrotation Yrotation
      JOINT LeftFoot
      {
        OFFSET 40.6238 0 0
        CHANNELS 3 Zrotation Xrotation Yrotation
        JOINT LeftToeBase
        {
          OFFSET 12.7242 0 0
          CHANNELS 3 Zrotation Xrotation Yrotation
          End Site
          {
            OFFSET 0 0 0
          }
        }
      }
    }
  }
  JOINT RightUpLeg
  {
    OFFSET -8.2249 1.95398 -2.59336
    CHANNELS 3 Zrotation Xrotation Yrotation
    JOINT RightLeg
    {
      OFFSET 43.5653 0 0
      CHANNELS 3 Zrotation Xrotation Yrotation
      JOINT RightFoot
      {
        OFFSET 40.6238 0 0
        CHANNELS 3 Zrotation Xrotation Yrotation
        JOINT RightToeBase
        {
          OFFSET 12.7242 0 0
          CHANNELS 3 Zrotation Xrotation Yrotation
          End Site
          {
            OFFSET 0 0 0
          }
        }
      }
    }
  }
  JOINT Spine
  {
    OFFSET 0.165834 0.87714 6.61349
    CHANNELS 3 Zrotation Xrotation Yrotation
    JOINT Spine1
    {
      OFFSET 7.38963 1.71661e-005 0
      CHANNELS 3 Zrotation Xrotation Yrotation
      JOINT Spine2
      {
        OFFSET 11.9445 1.14441e-005 0
        CHANNELS 3 Zrotation Xrotation Yrotation
        JOINT Spine3
        {
          OFFSET 14.7254 4.19617e-005 0
          CHANNELS 3 Zrotation Xrotation Yrotation
          JOINT Spine4
          {
            OFFSET 10.9679 0 0
            CHANNELS 3 Zrotation Xrotation Yrotation
            JOINT RightShoulder
            {
              OFFSET 2.46616 -1.6653 3.69651
              CHANNELS 3 Zrotation Xrotation Yrotation
              JOINT RightArm
              {
                OFFSET 13.0012 0 0
                CHANNELS 3 Zrotation Xrotation Yrotation
                JOINT RightForeArm
                {
                  OFFSET 28.7848 1.52588e-005 0
                  CHANNELS 3 Zrotation Xrotation Yrotation
                  JOINT RightHand
                  {
                    OFFSET 26.5688 1.52588e-005 0
                    CHANNELS 3 Zrotation Xrotation Yrotation
                    End Site
                    {
                      OFFSET 0 0 0
                    }
                  }
                }
              }
            }
            JOINT LeftShoulder
            {
              OFFSET 2.38034 -1.29275 -3.7523
              CHANNELS 3 Zrotation Xrotation Yrotation
              JOINT LeftArm
              {
                OFFSET 16.3182 6.10351e-005 0
                CHANNELS 3 Zrotation Xrotation Yrotation
                JOINT LeftForeArm
                {
                  OFFSET 27.0901 0 0
                  CHANNELS 3 Zrotation Xrotation Yrotation
                  JOINT LeftHand
                  {
                    OFFSET 24.5451 1.52588e-005 0
                    CHANNELS 3 Zrotation Xrotation Yrotation
                    End Site
                    {
                      OFFSET 0 0 0
                    }
                  }
                }
              }
            }
            JOINT Neck
            {
              OFFSET 5.0226 -0.0266342 0
              CHANNELS 3 Zrotation Xrotation Yrotation
              JOINT Head
              {
                OFFSET 6.69364 2.86102e-005 0
                CHANNELS 3 Zrotation Xrotation Yrotation
                End Site
                {
                  OFFSET 0 0 0
                }
              }
            }
          }
        }
      }
    }
  }
}
MOTION
Frames:	14
Frame Time:	0.0333333
128.214 93.4073 24.508 -169.249 -64.6674 175.928 169.998 57.5942 147.042 -71.0512 28.1969 4.98339 59.7534 -3.08244 3.45008 33.0337 1.29413 7.27566 173.591 3.40077 84.019 -32.9294 -13.0345 -4.35949 68.3404 -5.87771 -7.81186 43.973 -7.02741 -6.48252 -2.18567 8.41676 -87.0705 10.0839 -3.02205 6.06618 -1.59838 -2.75268 6.1927 -24.0814 -4.70346 4.88141 -4.06878 -4.70345 4.8814 88.3908 -58.9671 -101.134 48.0167 -43.8795 40.625 -10.5549 -26.1076 -24.3058 14.2961 10.6429 19.1302 -87.2112 -34.6193 79.7813 -24.3032 -12.136 -90.5906 9.4141 8.49717 -65.0653 44.8344 6.871 4.19738 -37.6314 8.55285 16.5772 19.639 10.7071 -6.56338 
130.055 93.1677 24.2416 163.521 -67.9217 149.437 179.423 49.0575 128.799 -72.8455 25.2883 4.70224 54.3078 -10.36 1.1921 28.3973 -5.70403 7.48175 175.707 7.5649 85.3042 -32.786 -6.12527 -5.10181 70.9334 -7.07783 -1.14863 44.8937 -7.70202 -5.76827 -2.35987 8.13319 -87.5752 10.6684 -3.58373 5.14704 -1.00842 -3.35404 5.29932 -23.5328 -4.96383 3.83377 -3.52018 -4.96382 3.83376 87.4001 -61.9173 -101.826 46.3045 -43.3153 31.1505 -11.3503 -19.1757 -23.1111 10.9498 9.07248 19.23 -88.6905 -36.833 77.768 -33.4198 -0.0521853 -89.9919 8.21704 21.1329 -74.8772 46.8192 7.70986 6.32726 -35.1242 6.10828 16.5343 18.8252 7.03514 -10.4029 
132.273 92.9179 23.5515 143.8 -67.2 130.628 -174.276 36.6018 116.395 -69.7925 25.5569 3.95553 51.5289 -14.7351 3.14878 25.6373 -11.0196 8.7154 177.872 10.1351 85.3429 -33.1283 -7.97134 -6.69765 72.3124 -7.89004 6.85969 47.0043 -8.89296 -5.97164 -2.16113 7.98773 -88.2239 10.9472 -3.48084 3.86086 -0.725255 -3.30768 4.01013 -23.2731 -4.47976 2.63628 -3.26041 -4.47975 2.63628 89.4862 -61.347 -99.149 39.3393 -46.2645 17.4874 -12.4558 -12.9897 -22.1446 4.1347 5.83404 19.2193 -92.6057 -41.1965 72.3596 -29.6539 6.55184 -74.7514 9.31695 21.825 -79.8824 43.9894 6.95641 5.45063 -32.868 2.94937 16.1988 16.4669 3.44699 -11.2808 
134.565 93.046 22.7621 131.401 -64.4381 119.847 -172.316 22.296 108.546 -61.792 17.9346 3.68645 52.9089 -11.5518 1.57468 25.6667 -9.52968 7.00793 178.806 10.8208 84.9084 -31.9587 -9.36128 -7.57867 67.8864 -5.60856 17.7018 44.1088 -7.53611 -4.6635 -1.99222 7.90083 -88.8561 11.1114 -3.43456 2.60951 -0.55798 -3.31642 2.75814 -23.1215 -4.05981 1.45573 -3.10884 -4.05981 1.45573 91.9413 -59.5979 -96.1216 27.2732 -45.3538 2.42847 -13.4199 -9.19844 -23.5923 -5.72887 1.35385 20.0604 -94.3677 -42.3626 69.8849 -22.6171 20.3462 -67.8367 13.9028 17.4121 -80.1088 40.8128 6.1385 4.37854 -31.5212 0.44041 16.569 15.3788 0.705795 -12.0342 
137.1 92.3776 21.691 118.064 -60.2334 108.996 -173.4 12.2493 103.502 -53.9821 18.0245 3.81997 55.2385 -8.63028 7.76624 23.3627 -13.55 7.51237 178.713 13.9636 83.6936 -32.5897 -15.4682 -6.97855 63.2025 -2.16037 11.9885 31.8984 -2.72129 3.15191 -2.00767 7.57613 -89.4781 11.7503 -3.74767 1.44254 0.0837481 -3.68056 1.60625 -22.4944 -4.00769 0.247845 -2.48173 -4.00769 0.247843 92.5309 -59.4567 -95.3276 15.5242 -37.4796 -6.81681 -15.7199 -7.84148 -29.8537 -15.3107 -3.04826 19.0742 -93.9379 -41.9826 70.45 -9.89273 34.0939 -68.7452 14.2885 8.66509 -76.133 39.0789 5.67805 3.42182 -30.6094 -1.80118 16.2049 14.8576 -1.87859 -12.9271 
138.602 90.9527 19.9889 104.221 -53.7916 99.5188 -175.125 8.2298 102.647 -49.0478 22.4979 4.66549 57.898 -4.99702 14.9061 26.3429 -12.4838 11.2817 -179.636 18.9079 84.2819 -34.4064 -17.2545 -6.7938 62.7107 -1.12203 5.0305 32.2611 -3.58715 5.20953 -2.10898 6.97162 -89.8916 12.9495 -4.13533 0.713941 1.28478 -4.0999 0.895538 -21.3025 -4.15838 -0.564095 -1.28984 -4.15839 -0.564099 89.1702 -64.3292 -98.9958 3.94754 -26.3228 -10.6361 -15.232 -4.0103 -35.7439 -21.6153 -5.66777 14.7716 -91.3178 -37.6372 73.4239 -1.25621 40.2628 -72.6088 14.7683 9.44685 -76.4678 34.8532 4.76322 2.05003 -30.6698 -2.5388 7.78815 13.422 -2.7892 -7.88311 
139.623 89.9062 17.1168 97.3088 -45.0964 94.303 -177.248 4.59021 100.613 -41.8685 23.2105 5.71049 59.7385 -1.45855 16.2034 37.2786 3.32298 14.9013 -177.345 21.8591 81.6253 -36.2911 -15.421 -8.68126 60.9642 -0.30938 4.51084 36.6312 -4.66952 1.23998 -2.4597 6.60996 -89.9141 13.6809 -4.83603 0.804536 2.01856 -4.79596 1.01708 -20.5883 -4.85371 -0.68961 -0.575638 -4.85373 -0.689618 83.1587 -70.497 -105.188 -10.5854 -22.0546 -15.1362 -12.1474 7.06085 -38.1887 -19.1512 -4.41409 10.0077 -89.6398 -37.2271 76.201 10.6972 43.1949 -76.9911 16.5807 7.3964 -80.4638 27.6596 3.61041 2.29633 -30.3125 -3.31677 1.2619 11.4109 -3.97337 -5.38528 
140.312 89.2987 14.274 91.4681 -36.9367 89.955 -178.184 6.27069 100.016 -34.2606 18.4289 5.30416 62.3064 3.66959 15.305 37.7669 6.70433 9.86471 -176.968 24.7633 78.0937 -35.9324 -10.319 -8.99019 59.8486 -0.595641 7.55827 37.3478 -4.12096 -2.29276 -2.63613 6.23015 -89.6083 14.4719 -5.02779 1.4953 2.80971 -4.95711 1.7156 -19.8046 -5.24414 -0.088976 0.208056 -5.24415 -0.0889853 65.6091 -78.823 -122.669 -24.2396 -21.0522 -17.2804 -14.1501 15.1808 -37.8327 -17.6484 -3.69947 4.42058 -87.0758 -34.7361 80.1115 23.509 46.5497 -83.5371 19.0096 1.39246 -83.8882 20.0562 2.36949 2.1331 -32.688 -4.16215 -6.4685 12.3874 -5.99319 -4.71849 
140.359 88.6838 11.79 90.0556 -29.1665 87.6009 -177.437 11.6197 98.6474 -34.6437 17.807 3.75425 64.8828 6.7268 12.839 38.7411 10.2751 4.91668 178.922 25.0926 73.7273 -34.9408 -9.52944 -6.42207 60.9593 -1.85177 3.93527 36.7507 -3.44909 -3.52681 -2.7067 6.18694 -88.7061 14.5811 -4.71955 3.28412 2.91408 -4.57051 3.48875 -19.6787 -5.48789 1.71123 0.333996 -5.48789 1.71123 -12.9322 -84.4574 160.026 -34.4448 -22.5528 -19.4995 -20.4246 25.3398 -33.1705 -15.1394 -2.92946 1.89239 -84.5629 -29.1899 83.6222 29.9187 48.2635 -87.0542 19.7008 -1.74809 -84.6987 16.6778 1.86748 1.17753 -37.338 -3.12083 -18.1181 14.7504 -7.66111 -4.55696 
140.138 88.8332 10.3006 90.8922 -24.2537 87.1039 -174.606 16.2633 98.7616 -38.4941 23.9564 0.936164 64.5214 6.47484 11.8458 38.7025 10.4859 4.3245 176.588 23.8651 71.803 -33.9032 -5.63965 -5.97934 60.2357 -0.947763 5.77238 36.5576 -3.22468 -3.92486 -2.56308 6.37464 -87.9114 14.1911 -4.0551 4.74671 2.51709 -3.84251 4.92024 -20.0296 -5.29323 3.30902 -0.0169589 -5.29324 3.30901 -58.0411 -81.2701 116.201 -37.7397 -22.1424 -21.9965 -26.8488 31.9308 -28.139 -12.1059 -2.11315 -0.49068 -82.8127 -25.5035 86.4756 39.7676 50.7561 -92.1886 22.6448 -11.2743 -85.9608 10.3126 0.945179 0.517706 -41.2424 -1.52596 -24.9936 15.5207 -8.94267 -6.9439 
140.61 88.9587 9.45633 92.0409 -22.2214 87.6767 -172.828 17.3467 98.9342 -39.983 26.475 -0.545686 64.5114 6.24871 12.6062 38.3638 9.99061 4.47725 174.815 22.7248 71.1343 -33.2804 -5.66725 -5.15351 58.6033 0.73441 4.31811 37.0295 -3.73277 -3.08801 -2.32923 6.49495 -87.5495 13.9458 -3.42101 5.37095 2.26764 -3.18168 5.51581 -20.2463 -4.87578 4.09678 -0.233686 -4.87578 4.09678 -66.3411 -79.9785 108.463 -39.0066 -18.852 -24.1437 -27.813 34.8794 -26.2045 -11.1393 -1.90715 -1.57553 -81.2509 -22.9552 89.4382 38.2938 54.8786 -91.0821 27.3082 -15.927 -84.1403 8.71388 0.841892 -0.54835 -43.3172 -0.672752 -26.8129 13.9104 -9.53057 -9.48556 
141.899 89.1151 8.47154 92.2018 -22.353 86.7527 -172.561 16.5517 97.1074 -40.1257 25.8662 -1.21716 64.9692 6.98098 13.4434 37.948 9.24637 4.95803 171.62 22.8715 68.5017 -31.1027 -5.4561 -3.10726 58.7524 -0.169225 6.81156 35.6191 -3.06426 -2.56213 -2.14193 6.356 -87.2715 14.2077 -2.90616 5.87583 2.52621 -2.64521 5.99748 -19.9599 -4.5359 4.73432 0.0527556 -4.5359 4.73431 -68.3907 -79.6275 106.583 -39.7918 -16.4041 -25.816 -30.8005 33.9393 -24.291 -7.65186 -1.09855 -2.71597 -80.0626 -20.9122 91.8184 39.3496 60.1862 -92.5181 33.3343 -23.2632 -81.1021 5.94189 0.705331 -2.3749 -44.8058 -0.204191 -26.2334 12.3809 -9.43983 -10.9741 
142.481 89.166 8.09113 91.2494 -20.9144 87.1396 -172.447 18.3342 97.4185 -41.2386 26.5282 -1.10489 64.6244 7.20656 12.9921 38.6019 10.1469 4.82946 170.553 22.3448 68.4865 -29.517 -6.10926 -2.00829 58.4574 0.998313 6.11425 35.178 -2.60303 -3.27268 -2.12823 6.21153 -87.2402 14.4972 -2.85453 5.94727 2.81526 -2.59051 6.06657 -19.6674 -4.50808 4.81813 0.34521 -4.50806 4.81813 -71.6256 -79.1692 103.652 -39.9005 -14.2314 -27.222 -32.7345 33.0637 -23.3619 -6.061 -0.796667 -3.70013 -79.4352 -21.2494 93.2929 38.9721 61.6056 -90.6931 37.5079 -26.4735 -80.2916 4.40506 0.635306 -3.12758 -44.9366 -0.420667 -25.3394 10.1937 -9.46591 -12.6385 
142.748 88.9166 8.32699 90.9626 -19.8498 88.0101 -172.294 19.9625 98.4332 -43.251 27.3783 -0.959383 64.9134 7.4255 13.3202 38.5783 10.1184 4.82381 170.39 21.3464 69.4941 -28.9336 -3.85765 -1.7222 58.9858 0.637422 5.41155 35.6624 -3.12112 -2.45144 -2.1655 6.16266 -87.1526 14.5968 -2.88205 6.13204 2.91398 -2.60988 6.25233 -19.5638 -4.58965 4.98646 0.448805 -4.58964 4.98646 -75.7457 -78.1874 99.9561 -41.3064 -16.4101 -28.5375 -36.3194 33.8442 -20.4393 -4.49917 -0.522853 -4.70265 -78.8546 -19.6368 94.5126 39.2572 61.3383 -90.9902 38.3904 -28.46 -80.2427 2.9946 0.524631 -3.46641 -44.2737 -0.267095 -26.5943 8.68408 -9.34416 -12.6571 
